<?xml version="1.0" standalone="no"?>
<!DOCTYPE svg PUBLIC "-//W3C//DTD SVG 20010904//EN"
  "http://www.w3.org/TR/2001/REC-SVG-20010904/DTD/svg10.dtd">
<svg version="1.0" xmlns="http://www.w3.org/2000/svg"
  width="700.000000pt" height="700.000000pt" viewBox="0 0 700.000000 700.000000"
  preserveAspectRatio="xMidYMid meet">
<metadata>
Created by potrace 1.14, written by Peter Selinger 2001-2017
</metadata>
<g transform="translate(0.000000,700.000000) scale(0.100000,-0.100000)"
fill="#000000" stroke="none">
<path d="M2005 6987 c-95 -32 -183 -106 -218 -182 l-18 -40 -312 1 c-233 1
-318 -2 -337 -12 -28 -13 -843 -824 -869 -864 -13 -20 -16 -62 -18 -270 0
-135 -2 -252 -2 -261 -1 -9 -19 -24 -41 -34 -56 -25 -124 -96 -157 -164 -25
-49 -28 -67 -27 -146 0 -80 4 -97 31 -150 34 -67 98 -131 165 -166 36 -20 58
-23 143 -24 90 0 106 3 157 28 60 29 138 106 163 161 43 94 43 214 0 302 -31
63 -100 134 -156 159 -30 14 -39 24 -40 44 -1 32 -1 392 0 407 1 14 741 754
755 755 16 1 496 1 526 0 20 -1 29 -9 39 -36 17 -48 97 -127 162 -161 47 -24
66 -28 144 -28 82 -1 96 2 156 31 77 38 130 93 167 171 23 48 27 71 27 142 0
71 -4 94 -26 141 -58 124 -166 197 -300 205 -46 2 -89 -1 -114 -9z m158 -238
c47 -26 67 -108 37 -156 -49 -81 -170 -74 -205 11 -44 104 67 199 168 145z
m-1735 -1649 c70 -69 34 -181 -63 -195 -49 -7 -82 9 -112 54 -51 76 6 170 104
171 33 0 48 -6 71 -30z"/>
<path d="M3053 6986 c-149 -48 -243 -170 -249 -320 -1 -44 4 -89 14 -119 l15
-48 -596 -597 c-328 -329 -598 -604 -598 -612 -1 -8 -3 -272 -4 -587 l-2 -572
-99 -99 -99 -98 -55 17 c-164 50 -342 -34 -417 -198 -35 -75 -36 -182 -4 -266
28 -71 105 -153 175 -186 173 -80 385 -4 464 167 40 88 43 202 8 283 -5 11 28
50 117 140 85 85 128 135 135 159 7 23 10 225 8 590 l-2 555 567 568 566 569
50 -15 c49 -15 152 -17 201 -4 79 21 171 98 214 181 28 54 33 80 33 166 -1
182 -140 326 -327 336 -45 2 -89 -1 -115 -10z m163 -243 c72 -47 61 -164 -19
-198 -61 -25 -122 -2 -150 58 -51 106 69 206 169 140z m-1866 -3033 c76 -54
58 -175 -30 -201 -48 -15 -80 -7 -119 30 -26 25 -31 36 -31 76 0 40 5 52 34
81 28 28 42 34 76 34 26 0 53 -8 70 -20z"/>
<path d="M4093 6982 c-181 -65 -282 -254 -228 -427 l18 -57 -705 -706 c-388
-389 -711 -717 -717 -729 -7 -14 -11 -96 -11 -222 0 -198 0 -200 -22 -207 -42
-13 -106 -63 -141 -111 -168 -230 -6 -553 277 -553 83 0 150 22 211 67 202
155 182 457 -40 584 l-50 29 -1 159 0 160 681 681 682 682 51 -16 c160 -47
343 31 409 175 15 32 23 39 48 40 33 1 313 1 333 0 9 -1 12 -34 13 -128 0 -71
4 -136 8 -146 3 -10 116 -128 249 -262 l243 -244 -16 -46 c-77 -229 116 -472
360 -452 204 16 352 209 315 409 -38 201 -242 330 -434 274 -32 -10 -61 -15
-65 -12 -3 4 -101 101 -217 216 l-211 210 0 163 c0 127 -4 170 -16 193 -29 56
-45 59 -326 59 l-256 0 -22 40 c-62 116 -166 183 -294 191 -56 3 -87 0 -126
-14z m175 -238 c51 -33 61 -110 21 -165 -60 -85 -202 -37 -203 69 0 96 101
149 182 96z m1518 -1051 c59 -38 58 -148 -1 -187 -40 -26 -90 -27 -127 -2 -43
29 -60 62 -54 109 10 87 107 130 182 80z m-3147 -1289 c39 -32 52 -77 36 -124
-14 -42 -66 -80 -108 -80 -69 0 -130 78 -113 146 20 78 123 111 185 58z"/>
<path d="M5620 6986 c-94 -30 -184 -109 -224 -195 -31 -68 -30 -228 3 -290 81
-154 246 -230 407 -186 l64 17 449 -448 448 -449 -1 -477 -1 -478 -140 -140
-140 -140 -627 0 c-347 0 -637 -4 -650 -9 -13 -5 -178 -162 -365 -350 l-341
-341 -685 0 -685 0 -30 53 c-90 160 -280 222 -449 147 -61 -27 -137 -102 -169
-168 -25 -50 -29 -69 -29 -147 0 -78 4 -97 28 -147 88 -178 287 -251 462 -169
69 32 137 96 162 152 9 22 24 41 32 43 9 2 330 4 713 3 384 -1 712 2 729 6 23
6 127 103 375 351 l344 342 613 -1 c336 0 628 3 647 8 27 7 79 52 223 195 104
103 195 199 203 214 22 42 21 1106 -1 1151 -9 18 -226 243 -484 500 l-468 468
14 42 c75 215 -86 445 -317 452 -41 2 -91 -2 -110 -9z m136 -225 c16 -1 49
-32 64 -61 30 -56 2 -129 -59 -153 -54 -22 -95 -13 -135 32 -28 30 -28 111 -1
141 25 28 73 50 100 45 11 -2 25 -4 31 -4z m-2873 -3299 c55 -55 36 -150 -37
-182 -30 -14 -46 -16 -74 -8 -38 11 -81 52 -83 78 0 8 -2 25 -5 36 -4 27 33
84 66 102 39 20 98 8 133 -26z"/>
<path d="M943 5932 c-66 -24 -128 -66 -162 -112 -14 -19 -29 -37 -32 -40 -4
-3 -16 -32 -27 -65 -29 -83 -24 -181 11 -258 30 -66 105 -144 163 -170 l39
-18 -1 -335 0 -335 -216 -216 -216 -216 -46 16 c-30 10 -72 15 -119 13 -133
-5 -240 -74 -299 -194 -30 -60 -33 -76 -33 -152 0 -72 5 -94 28 -145 32 -68
109 -147 163 -167 19 -6 35 -19 35 -28 1 -8 2 -42 3 -75 1 -33 3 -71 4 -84 1
-16 140 -161 466 -487 l463 -464 0 -44 c0 -42 -2 -45 -41 -63 -61 -27 -141
-114 -167 -181 -32 -83 -31 -190 3 -264 33 -71 89 -133 154 -169 l51 -29 -1
-135 -1 -135 -43 -21 c-24 -12 -64 -43 -89 -69 -149 -155 -123 -406 56 -528
142 -97 333 -74 451 55 152 166 110 424 -87 535 l-53 30 0 136 1 137 37 17
c128 59 212 218 191 360 -16 107 -87 207 -182 258 l-47 25 0 77 c0 42 -4 87
-9 101 -5 13 -214 228 -465 479 -409 410 -455 459 -457 489 -3 58 0 65 36 78
51 18 132 102 161 166 34 74 41 153 20 235 l-17 64 246 246 c135 136 246 255
247 265 1 11 3 173 4 360 1 187 3 354 3 370 1 25 8 33 39 47 65 30 119 85 154
156 29 59 33 76 33 152 0 99 -26 168 -90 239 -84 93 -246 135 -362 93z m173
-237 c14 -9 32 -32 40 -52 30 -70 -21 -151 -97 -157 -65 -6 -114 36 -123 105
-11 94 99 157 180 104z m-721 -1739 c91 -38 93 -173 3 -211 -92 -38 -184 40
-158 134 11 43 35 68 76 81 40 12 41 12 79 -4z m950 -1876 c38 -24 58 -66 52
-108 -11 -68 -49 -102 -115 -102 -37 0 -50 6 -78 34 -97 97 24 248 141 176z
m4 -937 c37 -28 52 -62 47 -106 -17 -142 -226 -130 -226 13 0 94 104 148 179
93z"/>
<path d="M4551 5928 c-75 -26 -166 -106 -195 -173 l-18 -40 -196 1 c-144 1
-204 -2 -223 -12 -29 -14 -491 -472 -517 -513 -15 -22 -17 -69 -19 -396 0
-203 -1 -373 -2 -377 -1 -4 -22 -17 -47 -30 -56 -27 -123 -100 -153 -164 -76
-160 0 -371 163 -452 225 -113 492 44 502 294 3 75 -8 123 -43 189 -27 51 -97
116 -149 139 l-39 18 2 316 c1 174 2 326 2 338 1 13 66 86 172 192 253 254
209 227 374 225 77 0 148 -2 157 -2 9 -1 24 -16 33 -35 80 -167 294 -243 460
-161 218 106 268 388 99 559 -94 96 -235 128 -363 84z m183 -233 c68 -45 58
-165 -16 -196 -48 -20 -76 -19 -111 5 -42 29 -59 63 -53 110 5 42 45 92 80 99
32 6 75 -2 100 -18z m-1159 -1525 c79 -74 32 -200 -75 -200 -54 0 -109 41
-111 84 -5 67 14 108 62 134 33 18 96 8 124 -18z"/>
<path d="M4187 5106 c-116 -48 -182 -129 -210 -253 -55 -243 172 -465 416
-409 100 23 190 93 236 184 l19 38 601 0 601 -1 29 -50 c107 -188 354 -237
522 -104 201 159 163 474 -71 587 -48 24 -67 27 -150 27 -80 0 -103 -4 -145
-25 -62 -30 -135 -101 -160 -157 l-20 -42 -606 -1 -605 0 -19 42 c-24 55 -90
120 -157 154 -78 40 -199 45 -281 10z m182 -220 c39 -21 61 -58 61 -107 0 -33
-6 -47 -34 -75 -28 -28 -42 -34 -76 -34 -76 0 -129 62 -116 135 14 75 98 115
165 81z m1885 -11 c30 -20 52 -82 42 -121 -12 -46 -61 -84 -111 -84 -124 0
-162 166 -50 217 36 16 84 11 119 -12z"/>
<path d="M5493 3716 c-175 -56 -278 -246 -228 -424 l18 -62 -215 -215 -216
-215 -335 0 -335 0 -30 53 c-134 237 -470 237 -604 0 l-30 -53 -601 0 -602 0
-24 45 c-120 226 -430 252 -586 48 -128 -167 -72 -417 116 -517 l44 -24 1
-836 0 -836 -42 -20 c-115 -56 -194 -190 -189 -323 9 -221 218 -378 433 -323
159 40 262 173 262 336 0 128 -64 238 -177 302 l-53 30 0 836 0 837 42 20 c54
26 128 100 151 151 l19 41 604 -1 605 -1 22 -44 c89 -176 321 -240 489 -135
52 33 105 91 125 135 9 22 19 40 22 40 3 1 173 3 376 4 284 1 376 5 395 15 14
7 132 120 263 251 l238 238 37 -16 c22 -9 67 -16 112 -16 64 -1 86 4 141 30
196 91 266 323 153 504 -33 53 -109 116 -167 137 -61 23 -175 27 -234 8z m157
-229 c38 -19 68 -71 64 -112 -9 -102 -135 -143 -201 -66 -47 54 -28 144 38
178 31 16 67 16 99 0z m-3609 -704 c31 -19 59 -68 59 -105 0 -30 -33 -84 -61
-98 -39 -21 -109 -6 -141 29 -85 96 33 239 143 174z m1881 -10 c83 -75 38
-203 -72 -203 -120 0 -157 161 -50 218 32 16 96 9 122 -15z m-1872 -2331 c36
-27 51 -62 46 -105 -5 -45 -28 -74 -72 -93 -99 -42 -196 75 -137 165 38 60
108 74 163 33z"/>
</g>
</svg>
